<svg width="20" height="20" viewBox="0 0 20 20" fill="none" xmlns="http://www.w3.org/2000/svg">
<path d="M17.8125 1.5625H2.1875C1.77324 1.56297 1.37609 1.72774 1.08317 2.02067C0.790242 2.31359 0.625471 2.71074 0.625 3.125V13.125C0.625471 13.5393 0.790242 13.9364 1.08317 14.2293C1.37609 14.5223 1.77324 14.687 2.1875 14.6875H8.125V16.5625H6.875C6.46074 16.563 6.06359 16.7277 5.77067 17.0207C5.47774 17.3136 5.31297 17.7107 5.3125 18.125C5.3125 18.2079 5.34543 18.2874 5.40403 18.346C5.46264 18.4046 5.54212 18.4375 5.625 18.4375H14.375C14.4579 18.4375 14.5374 18.4046 14.596 18.346C14.6546 18.2874 14.6875 18.2079 14.6875 18.125C14.687 17.7107 14.5223 17.3136 14.2293 17.0207C13.9364 16.7277 13.5393 16.563 13.125 16.5625H11.875V14.6875H17.8125C18.2268 14.687 18.6239 14.5223 18.9168 14.2293C19.2098 13.9364 19.3745 13.5393 19.375 13.125V3.125C19.3745 2.71074 19.2098 2.31359 18.9168 2.02067C18.6239 1.72774 18.2268 1.56297 17.8125 1.5625ZM2.1875 2.1875H17.8125C18.0611 2.18778 18.2993 2.28665 18.4751 2.4624C18.6509 2.63816 18.7497 2.87645 18.75 3.125V12.8125H1.25V3.125C1.25028 2.87645 1.34915 2.63816 1.5249 2.4624C1.70066 2.28665 1.93895 2.18778 2.1875 2.1875ZM14.0089 17.8125H5.99106C6.05589 17.6298 6.17565 17.4717 6.33391 17.3598C6.49217 17.2479 6.68118 17.1877 6.875 17.1875H13.125C13.3188 17.1877 13.5078 17.2479 13.6661 17.3598C13.8243 17.4717 13.9441 17.6298 14.0089 17.8125ZM11.25 16.5625H8.75V14.6875H11.25V16.5625ZM17.8125 14.0625H2.1875C1.99371 14.0623 1.80474 14.002 1.64651 13.8902C1.48829 13.7783 1.36856 13.6201 1.30376 13.4375H18.6962C18.6314 13.6201 18.5117 13.7782 18.3535 13.8901C18.1953 14.002 18.0063 14.0623 17.8125 14.0625Z" fill="white"/>
<path d="M2.8125 7.8125H3.125C3.12517 8.03179 3.183 8.24719 3.2927 8.43707C3.4024 8.62695 3.56011 8.78465 3.75 8.89433V10C3.75 10.0336 3.75541 10.067 3.76602 10.0988L4.39102 11.9738C4.41177 12.036 4.45156 12.0902 4.50477 12.1285C4.55798 12.1669 4.62191 12.1875 4.6875 12.1875H5.3125C5.39538 12.1875 5.47486 12.1546 5.53347 12.096C5.59207 12.0374 5.625 11.9579 5.625 11.875V10.625H5.9375V11.875C5.9375 11.9579 5.97043 12.0374 6.02903 12.096C6.08764 12.1546 6.16712 12.1875 6.25 12.1875H6.875C6.94059 12.1875 7.00452 12.1669 7.05773 12.1285C7.11094 12.0902 7.15073 12.036 7.17148 11.9738L7.51692 10.9375H7.55376C7.61856 11.1201 7.73829 11.2783 7.89651 11.3902C8.05473 11.5021 8.24371 11.5623 8.4375 11.5625H9.0625C9.15028 11.5624 9.23759 11.5498 9.32186 11.5253L9.37813 11.9192C9.38877 11.9937 9.42591 12.0618 9.48274 12.1111C9.53957 12.1604 9.61228 12.1875 9.6875 12.1875H10.625C10.7012 12.1875 10.7747 12.1597 10.8318 12.1093C10.8889 12.0589 10.9256 11.9893 10.9351 11.9138L11.2476 9.41376C11.2492 9.4009 11.25 9.38796 11.25 9.375V8.4375C11.2494 7.94039 11.0517 7.4638 10.7002 7.11229C10.3487 6.76078 9.87211 6.56306 9.375 6.5625H6.875V6.25C6.875 6.16712 6.84207 6.08764 6.78347 6.02903C6.72486 5.97043 6.64538 5.9375 6.5625 5.9375H5.9375C5.79768 5.93735 5.65962 5.96866 5.53355 6.02912C5.50456 6.00003 5.47011 5.97696 5.43217 5.96124C5.39424 5.94552 5.35357 5.93745 5.3125 5.9375H3.4375C3.39643 5.93745 3.35576 5.94552 3.31783 5.96124C3.27989 5.97696 3.24544 6.00003 3.21645 6.02912C3.09038 5.96866 2.95232 5.93735 2.8125 5.9375H2.1875C2.10462 5.9375 2.02514 5.97043 1.96653 6.02903C1.90793 6.08764 1.875 6.16712 1.875 6.25V6.875C1.87528 7.12356 1.97414 7.36185 2.1499 7.5376C2.32565 7.71336 2.56395 7.81222 2.8125 7.8125ZM9.0625 10.9375H8.4375C8.4022 10.9374 8.36716 10.9313 8.33391 10.9195C8.50019 10.8911 8.65903 10.8295 8.8009 10.7383C8.94276 10.647 9.06473 10.528 9.15947 10.3885L9.23088 10.8884C9.18064 10.9206 9.12218 10.9376 9.0625 10.9375ZM10 7.35567V7.68307C9.99999 7.88315 9.92051 8.07504 9.77902 8.21653C9.63754 8.35801 9.44565 8.43749 9.24557 8.4375H9.0625V9.0625H9.24557C9.54387 9.06241 9.83412 8.96569 10.0729 8.78683C10.3116 8.60797 10.486 8.3566 10.5699 8.07034C10.6065 8.18928 10.6251 8.31305 10.625 8.4375V9.35555L10.3491 11.5625H9.95854L9.68437 9.64331C9.67373 9.56884 9.63659 9.50071 9.57976 9.45142C9.52293 9.40214 9.45023 9.375 9.375 9.375H9.0625C8.97962 9.375 8.90014 9.40793 8.84153 9.46653C8.78293 9.52514 8.75 9.60462 8.75 9.6875C8.74981 9.8532 8.6839 10.0121 8.56673 10.1292C8.44956 10.2464 8.2907 10.3123 8.125 10.3125H7.72525L7.79648 10.0988C7.80709 10.067 7.8125 10.0336 7.8125 10V9.6875H7.1875V9.94929L6.64978 11.5625H6.5625V10.3125C6.5625 10.2296 6.52957 10.1501 6.47097 10.0915C6.41236 10.0329 6.33288 10 6.25 10H5.3125C5.22962 10 5.15014 10.0329 5.09153 10.0915C5.03293 10.1501 5 10.2296 5 10.3125V11.5625H4.91272L4.375 9.94929V9.0625C4.6744 9.06211 4.96374 8.95443 5.19056 8.75899C5.41737 8.56355 5.56663 8.29329 5.61126 7.99724C5.72857 8.13502 5.87435 8.24573 6.03858 8.32174C6.2028 8.39774 6.38154 8.43724 6.5625 8.4375H6.57364C6.61315 8.71119 6.75486 8.95975 6.97025 9.13317C7.18564 9.30659 7.45872 9.39199 7.73453 9.37219C8.01035 9.35239 8.26843 9.22885 8.45683 9.02645C8.64524 8.82404 8.74999 8.55778 8.75 8.28125V7.1875H9.375C9.59454 7.18733 9.81019 7.24536 10 7.35567ZM6.82124 7.1875H8.125V8.28125C8.125 8.40557 8.07561 8.5248 7.98771 8.61271C7.8998 8.70062 7.78057 8.75 7.65625 8.75C7.53193 8.75 7.4127 8.70062 7.32479 8.61271C7.23689 8.5248 7.1875 8.40557 7.1875 8.28125V8.125C7.1875 8.04212 7.15457 7.96264 7.09597 7.90403C7.03736 7.84543 6.95788 7.8125 6.875 7.8125H6.5625C6.46539 7.81251 6.36963 7.78984 6.28283 7.74631C6.40711 7.69674 6.5194 7.62127 6.61224 7.52492C6.70508 7.42856 6.77633 7.31354 6.82124 7.1875ZM5.9375 6.5625H6.25V6.875C6.24991 6.95785 6.21695 7.03728 6.15837 7.09587C6.09978 7.15445 6.02035 7.18741 5.9375 7.1875H5.625V6.875C5.62509 6.79215 5.65805 6.71272 5.71663 6.65413C5.77522 6.59555 5.85465 6.5626 5.9375 6.5625ZM3.75 6.5625H5V7.8125C5 7.97826 4.93415 8.13723 4.81694 8.25444C4.69973 8.37165 4.54076 8.4375 4.375 8.4375C4.20924 8.4375 4.05027 8.37165 3.93306 8.25444C3.81585 8.13723 3.75 7.97826 3.75 7.8125V6.5625ZM2.5 6.5625H2.8125C2.89535 6.5626 2.97478 6.59555 3.03337 6.65413C3.09195 6.71272 3.12491 6.79215 3.125 6.875V7.1875H2.8125C2.72965 7.18741 2.65022 7.15445 2.59163 7.09587C2.53305 7.03728 2.50009 6.95785 2.5 6.875V6.5625Z" fill="white"/>
<path d="M6.3795 3.4375H9.68757V2.8125H6.25007C6.16718 2.8125 6.08769 2.84543 6.02908 2.90403L3.84158 5.09153L4.28355 5.53347L6.3795 3.4375Z" fill="white"/>
<path d="M12.1875 2.8125H10.9375V3.4375H12.1875V2.8125Z" fill="white"/>
<path d="M13.4375 2.8125H12.8125V3.4375H13.4375V2.8125Z" fill="white"/>
<path d="M16.5625 2.8125H14.0625V3.4375H16.5625V2.8125Z" fill="white"/>
<path d="M11.5625 4.0625H9.6875V4.6875H11.5625V4.0625Z" fill="white"/>
<path d="M14.6875 4.0625H12.1875V4.6875H14.6875V4.0625Z" fill="white"/>
<path d="M16.5625 4.0625H15.3125V4.6875H16.5625V4.0625Z" fill="white"/>
<path d="M16.5625 8.75H14.6875V6.875C14.6875 6.79212 14.6545 6.71264 14.5959 6.65403C14.5373 6.59543 14.4579 6.5625 14.375 6.5625C13.8805 6.5625 13.3972 6.70912 12.986 6.98383C12.5749 7.25853 12.2545 7.64898 12.0653 8.10579C11.8761 8.56261 11.8265 9.06527 11.923 9.55023C12.0195 10.0352 12.2576 10.4806 12.6072 10.8303C12.9568 11.1799 13.4023 11.418 13.8872 11.5145C14.3722 11.6109 14.8749 11.5614 15.3317 11.3722C15.7885 11.183 16.1789 10.8625 16.4536 10.4514C16.7283 10.0403 16.875 9.55695 16.875 9.0625C16.875 8.97962 16.842 8.90014 16.7834 8.84153C16.7248 8.78293 16.6454 8.75 16.5625 8.75ZM14.375 10.9375C13.9048 10.9375 13.4518 10.7608 13.1058 10.4426C12.7597 10.1243 12.5459 9.6877 12.5065 9.2192C12.4672 8.7507 12.6053 8.28452 12.8935 7.91305C13.1817 7.54158 13.5989 7.29191 14.0625 7.21354V9.0625C14.0625 9.14538 14.0954 9.22486 14.154 9.28347C14.2126 9.34207 14.2921 9.375 14.375 9.375H16.2239C16.1495 9.81167 15.9231 10.208 15.5848 10.4939C15.2464 10.7798 14.8179 10.9369 14.375 10.9375Z" fill="white"/>
<path d="M15.3125 5.625V7.8125C15.3125 7.89538 15.3454 7.97486 15.404 8.03347C15.4626 8.09207 15.5421 8.125 15.625 8.125H17.8125C17.8954 8.125 17.9749 8.09207 18.0335 8.03347C18.0921 7.97486 18.125 7.89538 18.125 7.8125C18.125 7.48418 18.0604 7.15907 17.9348 6.85574C17.8092 6.55241 17.625 6.27679 17.3929 6.04464C17.1607 5.81248 16.8851 5.62833 16.5818 5.50271C16.2784 5.37709 15.9533 5.31246 15.625 5.3125C15.5421 5.3125 15.4626 5.34543 15.404 5.40403C15.3454 5.46264 15.3125 5.54212 15.3125 5.625ZM15.9375 5.96329C16.3214 6.02837 16.6756 6.21125 16.9509 6.48659C17.2263 6.76193 17.4091 7.11609 17.4742 7.5H15.9375V5.96329Z" fill="white"/>
<path d="M9.0625 4.0625H7.8125V4.6875H9.0625V4.0625Z" fill="white"/>
</svg>
