<svg width="173" height="40" viewBox="0 0 173 40" fill="none" xmlns="http://www.w3.org/2000/svg">
<path fill-rule="evenodd" clip-rule="evenodd" d="M154.233 24.0199C154.233 29.4797 153.24 30.9676 151.154 30.9676C149.018 30.9676 147.976 29.4797 147.976 24.0199C147.976 18.5111 149.018 17.0722 151.154 17.0722C153.24 17.0722 154.233 18.5111 154.233 24.0199ZM138.541 24.0199C138.541 28.7442 139.678 32.0745 141.689 34.2664C144.12 33.4987 141.279 26.4156 143.989 35.9741C146.089 34.6975 146.364 33.4665 146.171 29.0171C150.486 33.4276 149.534 36.0425 151.372 36.1827C153.211 36.3235 154.794 30.2776 154.794 30.2776C154.794 30.2776 157.997 36.9672 159.411 33.0421C160.396 30.3051 161.905 28.5685 163.447 27.3951C163.592 26.3592 163.667 25.2355 163.667 24.0199C163.667 14.0449 158.751 10.2727 151.154 10.2727C143.556 10.2727 138.541 14.0449 138.541 24.0199ZM126.077 20.2979V27.8417C125.928 29.5287 125.085 30.8683 123.346 30.8683C121.062 30.8683 120.218 29.4294 120.218 24.1687C120.218 18.5607 121.062 17.1218 123.346 17.1218C125.035 17.1218 125.878 18.5111 126.077 20.2979ZM126.077 0.446566V12.8038C124.637 11.2161 122.701 10.2727 120.068 10.2727C114.16 10.2727 110.684 14.0449 110.684 24.1687C110.684 30.2749 112.074 33.9432 114.399 35.8937C115.666 35.4257 116.352 29.8063 119.359 27.7552C117.488 30.9414 118.737 35.3171 121.436 36.07C122.348 36.3241 123.28 36.5642 124.113 36.8022C125.046 36.3081 125.809 35.6362 126.425 34.839L126.822 36.8243C126.822 36.8243 127.639 37.0496 129.144 37.1609C129.607 34.904 130.319 32.686 131.214 31.8084C130.478 34.2014 131.969 36.003 133.542 37.0684C134.504 36.9564 135.065 36.8243 135.065 36.8243V0.396949C135.065 0.396949 133.327 1.49638e-05 130.596 1.49638e-05C127.815 1.49638e-05 126.077 0.446566 126.077 0.446566ZM86.3518 12.4565C86.3518 12.4565 86.2035 14.0449 86.9482 15.8318C87.7425 17.6676 88.8843 18.611 88.8843 18.611C88.8843 18.611 91.765 17.5684 94.6947 17.5684C97.177 17.5684 98.3195 18.611 98.3195 20.546V21.1414C97.177 21.0429 95.8366 20.943 94.5948 20.943C87.7921 20.943 84.3654 23.2756 84.3654 28.9822C84.3654 29.6943 84.4049 30.3601 84.4801 30.9836C84.9765 29.2625 85.6977 27.7921 86.7342 27.0572C85.426 30.4385 85.8808 32.733 87.7217 34.1189C88.1712 32.4701 88.2276 30.7879 87.5896 29.1525C94.6733 31.0386 91.804 40.2948 94.7585 32.1765C93.783 31.9277 93.2537 31.0742 93.2537 29.1317C93.2537 26.899 94.2473 26.1044 96.0848 26.1044C96.8798 26.1044 97.6238 26.1044 98.3195 26.2037V27.6426C98.3195 29.9263 97.67 31.6689 96.2807 32.1349C95.434 32.7786 96.3048 35.7582 97.0663 36.5099C97.817 36.0238 98.3993 35.3975 98.8159 34.6412L99.6102 36.8243C99.6102 36.8243 101 37.2206 103.434 37.2206C103.695 37.2206 103.945 37.2172 104.182 37.2085C106.087 34.0022 105.64 27.7438 103.238 25.6384C104.536 25.5365 105.948 26.3391 107.307 27.5386V19.5041C107.307 13.2504 103.98 10.2727 96.333 10.2727C90.5722 10.2727 86.3518 12.4565 86.3518 12.4565ZM77.0166 17.4195H81.8335C81.8335 17.4195 82.181 16.1288 82.181 14.2434C82.181 12.258 81.8335 11.1168 81.8335 11.1168H77.0166V5.31035C73.938 5.01198 70.263 5.45852 67.9793 6.55076V11.1168H64.5532C64.5532 11.1168 64.2057 12.258 64.2057 14.293C64.2057 16.1791 64.5532 17.4195 64.5532 17.4195H67.9793V27.8417C67.9793 29.0875 68.0598 30.1978 68.2296 31.1821C69.5129 29.1807 70.7326 27.3221 71.5269 27.2248L71.5396 36.4931C71.7322 36.6017 71.9328 36.7023 72.1421 36.7955C73.4308 34.8263 74.8028 32.8811 74.8598 31.4657C75.9359 32.2971 75.1744 35.3244 75.0745 37.5639C75.8762 37.6672 76.7537 37.7174 77.7117 37.7174C77.9706 37.7174 78.2282 37.7134 78.4825 37.7054C79.5545 36.8129 80.1784 35.8561 80.6065 32.9274C81.2102 34.0163 81.6926 35.8514 81.9361 37.3353C82.2702 37.2722 82.6003 37.2012 82.9257 37.122C82.9257 37.122 83.2738 36.0801 83.2738 34.3428C83.2738 31.9606 82.5782 30.8194 82.5782 30.8194C82.5782 30.8194 81.5356 31.0675 80.3435 31.0675C78.2088 31.0675 77.0166 30.3728 77.0166 27.6928V17.4195ZM50.8071 30.9676C52.6519 33.2727 52.7573 36.06 51.3538 37.7081C50.4676 37.6853 49.6377 37.6175 48.8689 37.521C48.5355 35.303 47.8666 32.9898 47.287 31.5643C47.287 31.5643 47.4795 35.1065 46.4746 37.0959C43.8327 36.4817 42.3568 35.6335 42.3568 35.6335C42.3568 33.152 43.0021 31.3652 44.3425 29.876C44.3425 29.876 47.4165 30.9488 50.8071 30.9676ZM42.605 18.8094C42.605 23.8214 45.8822 25.6076 48.9615 26.6502C51.7416 27.5929 54.3238 27.9409 54.3238 29.3309C54.3238 29.9578 54.0279 30.4043 53.296 30.6719C54.4559 32.4447 55.738 33.3807 56.3008 35.6838C57.2622 39.6096 60.3059 30.702 59.4217 27.7002C60.7299 28.9768 61.327 31.3075 61.9368 33.2084C62.5319 32.0041 62.815 30.5854 62.815 28.9822C62.815 24.1687 59.7363 22.233 56.757 21.1414C53.7777 20.0995 50.848 19.8514 50.848 18.4615C50.848 17.4691 51.6423 16.8241 53.9762 16.8241C57.1542 16.8241 59.9349 17.618 59.9349 17.618C61.4249 16.1791 61.9214 13.9457 61.8214 11.8611C61.8214 11.8611 58.7435 10.2727 53.033 10.2727C45.9318 10.2727 42.605 13.4495 42.605 18.8094ZM38.4832 25.9556C38.4832 25.9556 38.881 24.8144 38.881 22.8291C38.881 20.8437 38.4832 19.7025 38.4832 19.7025H26.8637C26.8637 19.7025 26.5162 20.8437 26.5162 22.8291C26.5162 24.8144 26.8637 25.9556 26.8637 25.9556H27.0663C27.1522 25.8899 27.2877 25.8919 27.4654 25.9556H38.4832ZM14.6981 19.9506C14.6981 20.4468 14.6981 20.943 14.6485 21.4391H9.38481C9.68268 17.7172 10.8748 16.5257 12.4138 16.5257C14.1024 16.5257 14.6981 17.9653 14.6981 19.9506ZM22.6929 26.551C22.6929 26.551 23.239 24.268 23.239 20.8933C23.239 13.7465 19.0178 10.2727 12.1656 10.2727C4.56796 10.2727 0 14.4914 0 24.0199C0 25.4769 0.100634 26.8085 0.301224 28.0201C6.68188 30.5686 3.36777 39.6907 7.27425 28.8515C7.27425 28.8515 7.37958 34.2832 10.6957 34.7565C14.0138 35.2299 14.8316 30.6745 14.9376 31.5127C15.2764 34.2007 16.696 35.2695 17.6057 37.1026C20.3831 36.3818 21.7496 35.2862 21.7496 35.2862C21.6503 33.0025 20.3093 30.4218 18.9682 29.3309C18.9682 29.3309 16.9328 30.521 14.1024 30.521C11.5698 30.521 10.0302 29.6775 9.48411 26.551H22.6929Z" fill="url(#paint0_linear)"/>
<path d="M169.394 36.9273H169.818C170.028 36.9273 170.196 36.8723 170.323 36.7637C170.45 36.6551 170.514 36.5177 170.514 36.35C170.514 36.1536 170.458 36.0121 170.345 35.9269C170.232 35.8418 170.054 35.7996 169.81 35.7996H169.394V36.9273ZM171.1 36.3339C171.1 36.5438 171.044 36.7282 170.933 36.8891C170.821 37.0507 170.665 37.1707 170.463 37.2492L171.398 38.8014H170.738L169.924 37.4108H169.394V38.8014H168.812V35.3007H169.838C170.273 35.3007 170.592 35.3859 170.795 35.5562C170.998 35.7265 171.1 35.986 171.1 36.3339ZM167.358 37.0494C167.358 37.5019 167.472 37.925 167.7 38.3193C167.927 38.7135 168.238 39.024 168.633 39.2506C169.027 39.4772 169.45 39.5912 169.901 39.5912C170.357 39.5912 170.78 39.4772 171.17 39.2493C171.561 39.0213 171.871 38.7122 172.1 38.3233C172.329 37.9344 172.444 37.51 172.444 37.0494C172.444 36.5934 172.33 36.1703 172.102 35.7801C171.874 35.3899 171.565 35.0794 171.176 34.8501C170.787 34.6215 170.362 34.5075 169.901 34.5075C169.445 34.5075 169.021 34.6215 168.631 34.8488C168.24 35.0768 167.93 35.3845 167.702 35.7734C167.472 36.1623 167.358 36.5881 167.358 37.0494ZM166.945 37.0494C166.945 36.525 167.076 36.0342 167.338 35.5756C167.6 35.1177 167.96 34.7563 168.419 34.4914C168.877 34.2272 169.372 34.0945 169.901 34.0945C170.425 34.0945 170.917 34.2259 171.375 34.4874C171.834 34.7496 172.195 35.1096 172.46 35.5682C172.725 36.0262 172.857 36.5203 172.857 37.0494C172.857 37.565 172.73 38.0497 172.476 38.503C172.221 38.9556 171.865 39.3183 171.406 39.5912C170.947 39.8634 170.446 39.9995 169.901 39.9995C169.358 39.9995 168.858 39.8634 168.399 39.5926C167.941 39.321 167.584 38.9596 167.328 38.5063C167.072 38.0538 166.945 37.5677 166.945 37.0494Z" fill="url(#paint1_linear)"/>
<defs>
<linearGradient id="paint0_linear" x1="81.8335" y1="37.7174" x2="81.8335" y2="1.27157e-05" gradientUnits="userSpaceOnUse">
<stop stop-color="#6EC545"/>
<stop offset="1" stop-color="#50B520"/>
</linearGradient>
<linearGradient id="paint1_linear" x1="169.901" y1="39.9995" x2="169.901" y2="34.0945" gradientUnits="userSpaceOnUse">
<stop stop-color="#6EC545"/>
<stop offset="1" stop-color="#50B520"/>
</linearGradient>
</defs>
</svg>
